<mxfile host="app.diagrams.net" agent="Mozilla/5.0 (Macintosh; Intel Mac OS X 10_15_7) AppleWebKit/605.1.15 (KHTML, like Gecko) Version/18.1.1 Safari/605.1.15" version="25.0.1">
  <diagram name="Page-1" id="wlJQbPl91tOS4ABwaMGo">
    <mxGraphModel dx="655" dy="1107" grid="1" gridSize="10" guides="1" tooltips="1" connect="1" arrows="1" fold="1" page="1" pageScale="1" pageWidth="850" pageHeight="1100" math="0" shadow="0">
      <root>
        <mxCell id="0" />
        <mxCell id="1" parent="0" />
        <mxCell id="tUc8w9MmdWVIXcs6jcP_-35" style="edgeStyle=orthogonalEdgeStyle;rounded=0;orthogonalLoop=1;jettySize=auto;html=1;" edge="1" parent="1" source="tUc8w9MmdWVIXcs6jcP_-1" target="tUc8w9MmdWVIXcs6jcP_-11">
          <mxGeometry relative="1" as="geometry" />
        </mxCell>
        <mxCell id="tUc8w9MmdWVIXcs6jcP_-1" value="User1" style="shape=umlActor;verticalLabelPosition=bottom;verticalAlign=top;html=1;" vertex="1" parent="1">
          <mxGeometry x="80" y="240" width="30" height="60" as="geometry" />
        </mxCell>
        <mxCell id="tUc8w9MmdWVIXcs6jcP_-37" style="edgeStyle=orthogonalEdgeStyle;rounded=0;orthogonalLoop=1;jettySize=auto;html=1;" edge="1" parent="1" source="tUc8w9MmdWVIXcs6jcP_-2" target="tUc8w9MmdWVIXcs6jcP_-12">
          <mxGeometry relative="1" as="geometry" />
        </mxCell>
        <mxCell id="tUc8w9MmdWVIXcs6jcP_-2" value="User2" style="shape=umlActor;verticalLabelPosition=bottom;verticalAlign=top;html=1;" vertex="1" parent="1">
          <mxGeometry x="80" y="390" width="30" height="60" as="geometry" />
        </mxCell>
        <mxCell id="tUc8w9MmdWVIXcs6jcP_-45" style="edgeStyle=orthogonalEdgeStyle;rounded=0;orthogonalLoop=1;jettySize=auto;html=1;entryX=0;entryY=0.5;entryDx=0;entryDy=0;" edge="1" parent="1" source="tUc8w9MmdWVIXcs6jcP_-3" target="tUc8w9MmdWVIXcs6jcP_-14">
          <mxGeometry relative="1" as="geometry" />
        </mxCell>
        <mxCell id="tUc8w9MmdWVIXcs6jcP_-3" value="User3" style="shape=umlActor;verticalLabelPosition=bottom;verticalAlign=top;html=1;" vertex="1" parent="1">
          <mxGeometry x="80" y="540" width="30" height="60" as="geometry" />
        </mxCell>
        <mxCell id="tUc8w9MmdWVIXcs6jcP_-48" style="edgeStyle=orthogonalEdgeStyle;rounded=0;orthogonalLoop=1;jettySize=auto;html=1;entryX=0;entryY=0.5;entryDx=0;entryDy=0;" edge="1" parent="1" source="tUc8w9MmdWVIXcs6jcP_-4" target="tUc8w9MmdWVIXcs6jcP_-15">
          <mxGeometry relative="1" as="geometry" />
        </mxCell>
        <mxCell id="tUc8w9MmdWVIXcs6jcP_-4" value="User4" style="shape=umlActor;verticalLabelPosition=bottom;verticalAlign=top;html=1;" vertex="1" parent="1">
          <mxGeometry x="80" y="690" width="30" height="60" as="geometry" />
        </mxCell>
        <mxCell id="tUc8w9MmdWVIXcs6jcP_-36" style="edgeStyle=orthogonalEdgeStyle;rounded=0;orthogonalLoop=1;jettySize=auto;html=1;entryX=0;entryY=0.5;entryDx=0;entryDy=0;" edge="1" parent="1" source="tUc8w9MmdWVIXcs6jcP_-11" target="tUc8w9MmdWVIXcs6jcP_-24">
          <mxGeometry relative="1" as="geometry">
            <Array as="points">
              <mxPoint x="420" y="330" />
              <mxPoint x="420" y="160" />
            </Array>
          </mxGeometry>
        </mxCell>
        <mxCell id="tUc8w9MmdWVIXcs6jcP_-40" style="edgeStyle=orthogonalEdgeStyle;rounded=0;orthogonalLoop=1;jettySize=auto;html=1;entryX=0;entryY=0.5;entryDx=0;entryDy=0;" edge="1" parent="1" source="tUc8w9MmdWVIXcs6jcP_-11" target="tUc8w9MmdWVIXcs6jcP_-22">
          <mxGeometry relative="1" as="geometry">
            <Array as="points">
              <mxPoint x="420" y="330" />
              <mxPoint x="420" y="260" />
            </Array>
          </mxGeometry>
        </mxCell>
        <mxCell id="tUc8w9MmdWVIXcs6jcP_-42" style="edgeStyle=orthogonalEdgeStyle;rounded=0;orthogonalLoop=1;jettySize=auto;html=1;" edge="1" parent="1" source="tUc8w9MmdWVIXcs6jcP_-11" target="tUc8w9MmdWVIXcs6jcP_-23">
          <mxGeometry relative="1" as="geometry" />
        </mxCell>
        <mxCell id="tUc8w9MmdWVIXcs6jcP_-11" value="Client" style="rounded=1;whiteSpace=wrap;html=1;" vertex="1" parent="1">
          <mxGeometry x="240" y="300" width="120" height="60" as="geometry" />
        </mxCell>
        <mxCell id="tUc8w9MmdWVIXcs6jcP_-44" style="edgeStyle=orthogonalEdgeStyle;rounded=0;orthogonalLoop=1;jettySize=auto;html=1;entryX=0;entryY=0.5;entryDx=0;entryDy=0;" edge="1" parent="1" source="tUc8w9MmdWVIXcs6jcP_-12" target="tUc8w9MmdWVIXcs6jcP_-25">
          <mxGeometry relative="1" as="geometry" />
        </mxCell>
        <mxCell id="tUc8w9MmdWVIXcs6jcP_-59" style="edgeStyle=orthogonalEdgeStyle;rounded=0;orthogonalLoop=1;jettySize=auto;html=1;entryX=0;entryY=0;entryDx=0;entryDy=0;" edge="1" parent="1" source="tUc8w9MmdWVIXcs6jcP_-12" target="tUc8w9MmdWVIXcs6jcP_-26">
          <mxGeometry relative="1" as="geometry">
            <Array as="points">
              <mxPoint x="430" y="430" />
              <mxPoint x="430" y="520" />
              <mxPoint x="500" y="520" />
              <mxPoint x="500" y="532" />
            </Array>
          </mxGeometry>
        </mxCell>
        <mxCell id="tUc8w9MmdWVIXcs6jcP_-12" value="&lt;p style=&quot;margin: 0px; font-style: normal; font-variant-caps: normal; font-stretch: normal; font-size: 10.9px; line-height: normal; font-size-adjust: none; font-kerning: auto; font-variant-alternates: normal; font-variant-ligatures: normal; font-variant-numeric: normal; font-variant-east-asian: normal; font-variant-position: normal; font-variant-emoji: normal; font-feature-settings: normal; font-optical-sizing: auto; font-variation-settings: normal;&quot;&gt;Premium Client&lt;/p&gt;" style="rounded=1;whiteSpace=wrap;html=1;" vertex="1" parent="1">
          <mxGeometry x="240" y="400" width="120" height="60" as="geometry" />
        </mxCell>
        <mxCell id="tUc8w9MmdWVIXcs6jcP_-46" style="edgeStyle=orthogonalEdgeStyle;rounded=0;orthogonalLoop=1;jettySize=auto;html=1;entryX=0;entryY=0.5;entryDx=0;entryDy=0;" edge="1" parent="1" source="tUc8w9MmdWVIXcs6jcP_-14" target="tUc8w9MmdWVIXcs6jcP_-28">
          <mxGeometry relative="1" as="geometry" />
        </mxCell>
        <mxCell id="tUc8w9MmdWVIXcs6jcP_-47" style="edgeStyle=orthogonalEdgeStyle;rounded=0;orthogonalLoop=1;jettySize=auto;html=1;entryX=0;entryY=0.5;entryDx=0;entryDy=0;" edge="1" parent="1" source="tUc8w9MmdWVIXcs6jcP_-14" target="tUc8w9MmdWVIXcs6jcP_-31">
          <mxGeometry relative="1" as="geometry" />
        </mxCell>
        <mxCell id="tUc8w9MmdWVIXcs6jcP_-60" style="edgeStyle=orthogonalEdgeStyle;rounded=0;orthogonalLoop=1;jettySize=auto;html=1;entryX=0;entryY=0.5;entryDx=0;entryDy=0;" edge="1" parent="1" source="tUc8w9MmdWVIXcs6jcP_-14" target="tUc8w9MmdWVIXcs6jcP_-29">
          <mxGeometry relative="1" as="geometry" />
        </mxCell>
        <mxCell id="tUc8w9MmdWVIXcs6jcP_-14" value="&lt;p style=&quot;margin: 0px; font-style: normal; font-variant-caps: normal; font-stretch: normal; font-size: 10.9px; line-height: normal; font-size-adjust: none; font-kerning: auto; font-variant-alternates: normal; font-variant-ligatures: normal; font-variant-numeric: normal; font-variant-east-asian: normal; font-variant-position: normal; font-variant-emoji: normal; font-feature-settings: normal; font-optical-sizing: auto; font-variation-settings: normal;&quot;&gt;Financial Advisor&lt;/p&gt;" style="rounded=1;whiteSpace=wrap;html=1;" vertex="1" parent="1">
          <mxGeometry x="240" y="500" width="120" height="60" as="geometry" />
        </mxCell>
        <mxCell id="tUc8w9MmdWVIXcs6jcP_-49" style="edgeStyle=orthogonalEdgeStyle;rounded=0;orthogonalLoop=1;jettySize=auto;html=1;entryX=0;entryY=0;entryDx=0;entryDy=0;" edge="1" parent="1" source="tUc8w9MmdWVIXcs6jcP_-15" target="tUc8w9MmdWVIXcs6jcP_-28">
          <mxGeometry relative="1" as="geometry">
            <Array as="points">
              <mxPoint x="400" y="630" />
              <mxPoint x="400" y="732" />
            </Array>
          </mxGeometry>
        </mxCell>
        <mxCell id="tUc8w9MmdWVIXcs6jcP_-50" style="edgeStyle=orthogonalEdgeStyle;rounded=0;orthogonalLoop=1;jettySize=auto;html=1;entryX=0;entryY=1;entryDx=0;entryDy=0;" edge="1" parent="1" source="tUc8w9MmdWVIXcs6jcP_-15" target="tUc8w9MmdWVIXcs6jcP_-31">
          <mxGeometry relative="1" as="geometry">
            <Array as="points">
              <mxPoint x="400" y="630" />
              <mxPoint x="400" y="1088" />
            </Array>
          </mxGeometry>
        </mxCell>
        <mxCell id="tUc8w9MmdWVIXcs6jcP_-51" style="edgeStyle=orthogonalEdgeStyle;rounded=0;orthogonalLoop=1;jettySize=auto;html=1;entryX=0;entryY=0.5;entryDx=0;entryDy=0;" edge="1" parent="1" source="tUc8w9MmdWVIXcs6jcP_-15" target="tUc8w9MmdWVIXcs6jcP_-30">
          <mxGeometry relative="1" as="geometry">
            <Array as="points">
              <mxPoint x="400" y="630" />
              <mxPoint x="400" y="960" />
            </Array>
          </mxGeometry>
        </mxCell>
        <mxCell id="tUc8w9MmdWVIXcs6jcP_-61" style="edgeStyle=orthogonalEdgeStyle;rounded=0;orthogonalLoop=1;jettySize=auto;html=1;entryX=0;entryY=0.5;entryDx=0;entryDy=0;" edge="1" parent="1" source="tUc8w9MmdWVIXcs6jcP_-15" target="tUc8w9MmdWVIXcs6jcP_-29">
          <mxGeometry relative="1" as="geometry">
            <Array as="points">
              <mxPoint x="450" y="630" />
              <mxPoint x="450" y="860" />
            </Array>
          </mxGeometry>
        </mxCell>
        <mxCell id="tUc8w9MmdWVIXcs6jcP_-15" value="&lt;p style=&quot;margin: 0px; font-style: normal; font-variant-caps: normal; font-stretch: normal; font-size: 10.9px; line-height: normal; font-size-adjust: none; font-kerning: auto; font-variant-alternates: normal; font-variant-ligatures: normal; font-variant-numeric: normal; font-variant-east-asian: normal; font-variant-position: normal; font-variant-emoji: normal; font-feature-settings: normal; font-optical-sizing: auto; font-variation-settings: normal;&quot;&gt;Financial Planner&lt;/p&gt;" style="rounded=1;whiteSpace=wrap;html=1;" vertex="1" parent="1">
          <mxGeometry x="240" y="600" width="120" height="60" as="geometry" />
        </mxCell>
        <mxCell id="tUc8w9MmdWVIXcs6jcP_-53" style="edgeStyle=orthogonalEdgeStyle;rounded=0;orthogonalLoop=1;jettySize=auto;html=1;entryX=0;entryY=0.5;entryDx=0;entryDy=0;" edge="1" parent="1" source="tUc8w9MmdWVIXcs6jcP_-16" target="tUc8w9MmdWVIXcs6jcP_-32">
          <mxGeometry relative="1" as="geometry">
            <Array as="points">
              <mxPoint x="380" y="730" />
              <mxPoint x="380" y="1160" />
            </Array>
          </mxGeometry>
        </mxCell>
        <mxCell id="tUc8w9MmdWVIXcs6jcP_-16" value="&lt;p style=&quot;margin: 0px; font-style: normal; font-variant-caps: normal; font-stretch: normal; font-size: 10.9px; line-height: normal; font-size-adjust: none; font-kerning: auto; font-variant-alternates: normal; font-variant-ligatures: normal; font-variant-numeric: normal; font-variant-east-asian: normal; font-variant-position: normal; font-variant-emoji: normal; font-feature-settings: normal; font-optical-sizing: auto; font-variation-settings: normal;&quot;&gt;Teller&lt;/p&gt;" style="rounded=1;whiteSpace=wrap;html=1;" vertex="1" parent="1">
          <mxGeometry x="240" y="700" width="120" height="60" as="geometry" />
        </mxCell>
        <mxCell id="tUc8w9MmdWVIXcs6jcP_-22" value="&lt;p style=&quot;margin: 0px; font-style: normal; font-variant-caps: normal; font-stretch: normal; font-size: 10.9px; line-height: normal; font-size-adjust: none; font-kerning: auto; font-variant-alternates: normal; font-variant-ligatures: normal; font-variant-numeric: normal; font-variant-east-asian: normal; font-variant-position: normal; font-variant-emoji: normal; font-feature-settings: normal; font-optical-sizing: auto; font-variation-settings: normal;&quot;&gt;view their investment portfolio&lt;/p&gt;" style="ellipse;whiteSpace=wrap;html=1;" vertex="1" parent="1">
          <mxGeometry x="500" y="220" width="120" height="80" as="geometry" />
        </mxCell>
        <mxCell id="tUc8w9MmdWVIXcs6jcP_-23" value="&lt;p style=&quot;margin: 0px; font-style: normal; font-variant-caps: normal; font-stretch: normal; font-size: 10.9px; line-height: normal; font-size-adjust: none; font-kerning: auto; font-variant-alternates: normal; font-variant-ligatures: normal; font-variant-numeric: normal; font-variant-east-asian: normal; font-variant-position: normal; font-variant-emoji: normal; font-feature-settings: normal; font-optical-sizing: auto; font-variation-settings: normal;&quot;&gt;view the contact&lt;/p&gt;&lt;p style=&quot;margin: 0px; font-style: normal; font-variant-caps: normal; font-stretch: normal; font-size: 10.9px; line-height: normal; font-size-adjust: none; font-kerning: auto; font-variant-alternates: normal; font-variant-ligatures: normal; font-variant-numeric: normal; font-variant-east-asian: normal; font-variant-position: normal; font-variant-emoji: normal; font-feature-settings: normal; font-optical-sizing: auto; font-variation-settings: normal;&quot;&gt;details of their Financial Advisor&lt;/p&gt;" style="ellipse;whiteSpace=wrap;html=1;" vertex="1" parent="1">
          <mxGeometry x="500" y="320" width="120" height="80" as="geometry" />
        </mxCell>
        <mxCell id="tUc8w9MmdWVIXcs6jcP_-24" value="&lt;p style=&quot;margin: 0px; font-style: normal; font-variant-caps: normal; font-stretch: normal; font-size: 10.9px; line-height: normal; font-size-adjust: none; font-kerning: auto; font-variant-alternates: normal; font-variant-ligatures: normal; font-variant-numeric: normal; font-variant-east-asian: normal; font-variant-position: normal; font-variant-emoji: normal; font-feature-settings: normal; font-optical-sizing: auto; font-variation-settings: normal;&quot;&gt;view their account balance&lt;/p&gt;" style="ellipse;whiteSpace=wrap;html=1;" vertex="1" parent="1">
          <mxGeometry x="500" y="120" width="120" height="80" as="geometry" />
        </mxCell>
        <mxCell id="tUc8w9MmdWVIXcs6jcP_-25" value="&lt;p style=&quot;margin: 0px; font-style: normal; font-variant-caps: normal; font-stretch: normal; font-size: 10.9px; line-height: normal; font-size-adjust: none; font-kerning: auto; font-variant-alternates: normal; font-variant-ligatures: normal; font-variant-numeric: normal; font-variant-east-asian: normal; font-variant-position: normal; font-variant-emoji: normal; font-feature-settings: normal; font-optical-sizing: auto; font-variation-settings: normal;&quot;&gt;modify their investment portfolio&lt;/p&gt;" style="ellipse;whiteSpace=wrap;html=1;" vertex="1" parent="1">
          <mxGeometry x="500" y="420" width="120" height="80" as="geometry" />
        </mxCell>
        <mxCell id="tUc8w9MmdWVIXcs6jcP_-26" value="&lt;p style=&quot;margin: 0px; font-style: normal; font-variant-caps: normal; font-stretch: normal; font-size: 10.9px; line-height: normal; font-size-adjust: none; font-kerning: auto; font-variant-alternates: normal; font-variant-ligatures: normal; font-variant-numeric: normal; font-variant-east-asian: normal; font-variant-position: normal; font-variant-emoji: normal; font-feature-settings: normal; font-optical-sizing: auto; font-variation-settings: normal;&quot;&gt;view the contact details of their&lt;/p&gt;&lt;p style=&quot;margin: 0px; font-style: normal; font-variant-caps: normal; font-stretch: normal; font-size: 10.9px; line-height: normal; font-size-adjust: none; font-kerning: auto; font-variant-alternates: normal; font-variant-ligatures: normal; font-variant-numeric: normal; font-variant-east-asian: normal; font-variant-position: normal; font-variant-emoji: normal; font-feature-settings: normal; font-optical-sizing: auto; font-variation-settings: normal;&quot;&gt;Financial Planner&lt;/p&gt;" style="ellipse;whiteSpace=wrap;html=1;" vertex="1" parent="1">
          <mxGeometry x="500" y="520" width="120" height="80" as="geometry" />
        </mxCell>
        <mxCell id="tUc8w9MmdWVIXcs6jcP_-27" value="&lt;p style=&quot;margin: 0px; font-style: normal; font-variant-caps: normal; font-stretch: normal; font-size: 10.9px; line-height: normal; font-size-adjust: none; font-kerning: auto; font-variant-alternates: normal; font-variant-ligatures: normal; font-variant-numeric: normal; font-variant-east-asian: normal; font-variant-position: normal; font-variant-emoji: normal; font-feature-settings: normal; font-optical-sizing: auto; font-variation-settings: normal;&quot;&gt;view a Client’s account balance&amp;nbsp;&lt;/p&gt;" style="ellipse;whiteSpace=wrap;html=1;" vertex="1" parent="1">
          <mxGeometry x="500" y="620" width="120" height="80" as="geometry" />
        </mxCell>
        <mxCell id="tUc8w9MmdWVIXcs6jcP_-28" value="&lt;p style=&quot;margin: 0px; font-style: normal; font-variant-caps: normal; font-stretch: normal; font-size: 10.9px; line-height: normal; font-size-adjust: none; font-kerning: auto; font-variant-alternates: normal; font-variant-ligatures: normal; font-variant-numeric: normal; font-variant-east-asian: normal; font-variant-position: normal; font-variant-emoji: normal; font-feature-settings: normal; font-optical-sizing: auto; font-variation-settings: normal;&quot;&gt;view a Client’s account investment portfolio&lt;/p&gt;" style="ellipse;whiteSpace=wrap;html=1;" vertex="1" parent="1">
          <mxGeometry x="500" y="720" width="120" height="80" as="geometry" />
        </mxCell>
        <mxCell id="tUc8w9MmdWVIXcs6jcP_-29" value="&lt;p style=&quot;margin: 0px; font-style: normal; font-variant-caps: normal; font-stretch: normal; font-size: 10.9px; line-height: normal; font-size-adjust: none; font-kerning: auto; font-variant-alternates: normal; font-variant-ligatures: normal; font-variant-numeric: normal; font-variant-east-asian: normal; font-variant-position: normal; font-variant-emoji: normal; font-feature-settings: normal; font-optical-sizing: auto; font-variation-settings: normal;&quot;&gt;modify a client’s investment portfolio&lt;/p&gt;" style="ellipse;whiteSpace=wrap;html=1;" vertex="1" parent="1">
          <mxGeometry x="500" y="820" width="120" height="80" as="geometry" />
        </mxCell>
        <mxCell id="tUc8w9MmdWVIXcs6jcP_-30" value="&lt;p style=&quot;margin: 0px; font-style: normal; font-variant-caps: normal; font-stretch: normal; font-size: 10.9px; line-height: normal; font-size-adjust: none; font-kerning: auto; font-variant-alternates: normal; font-variant-ligatures: normal; font-variant-numeric: normal; font-variant-east-asian: normal; font-variant-position: normal; font-variant-emoji: normal; font-feature-settings: normal; font-optical-sizing: auto; font-variation-settings: normal;&quot;&gt;view money market instruments&lt;/p&gt;" style="ellipse;whiteSpace=wrap;html=1;" vertex="1" parent="1">
          <mxGeometry x="500" y="920" width="120" height="80" as="geometry" />
        </mxCell>
        <mxCell id="tUc8w9MmdWVIXcs6jcP_-31" value="&lt;p style=&quot;margin: 0px; font-style: normal; font-variant-caps: normal; font-stretch: normal; font-size: 10.9px; line-height: normal; font-size-adjust: none; font-kerning: auto; font-variant-alternates: normal; font-variant-ligatures: normal; font-variant-numeric: normal; font-variant-east-asian: normal; font-variant-position: normal; font-variant-emoji: normal; font-feature-settings: normal; font-optical-sizing: auto; font-variation-settings: normal;&quot;&gt;view private consumer instruments&lt;/p&gt;" style="ellipse;whiteSpace=wrap;html=1;" vertex="1" parent="1">
          <mxGeometry x="500" y="1020" width="120" height="80" as="geometry" />
        </mxCell>
        <mxCell id="tUc8w9MmdWVIXcs6jcP_-32" value="&lt;p style=&quot;margin: 0px; font-style: normal; font-variant-caps: normal; font-stretch: normal; font-size: 10.9px; line-height: normal; font-size-adjust: none; font-kerning: auto; font-variant-alternates: normal; font-variant-ligatures: normal; font-variant-numeric: normal; font-variant-east-asian: normal; font-variant-position: normal; font-variant-emoji: normal; font-feature-settings: normal; font-optical-sizing: auto; font-variation-settings: normal;&quot;&gt;access the system during business hours&lt;/p&gt;" style="ellipse;whiteSpace=wrap;html=1;" vertex="1" parent="1">
          <mxGeometry x="500" y="1120" width="120" height="80" as="geometry" />
        </mxCell>
        <mxCell id="tUc8w9MmdWVIXcs6jcP_-52" style="edgeStyle=orthogonalEdgeStyle;rounded=0;orthogonalLoop=1;jettySize=auto;html=1;entryX=0;entryY=0.5;entryDx=0;entryDy=0;" edge="1" parent="1" source="tUc8w9MmdWVIXcs6jcP_-34" target="tUc8w9MmdWVIXcs6jcP_-16">
          <mxGeometry relative="1" as="geometry">
            <Array as="points">
              <mxPoint x="200" y="870" />
              <mxPoint x="200" y="730" />
            </Array>
          </mxGeometry>
        </mxCell>
        <mxCell id="tUc8w9MmdWVIXcs6jcP_-34" value="User5" style="shape=umlActor;verticalLabelPosition=bottom;verticalAlign=top;html=1;" vertex="1" parent="1">
          <mxGeometry x="80" y="840" width="30" height="60" as="geometry" />
        </mxCell>
        <mxCell id="tUc8w9MmdWVIXcs6jcP_-57" style="edgeStyle=orthogonalEdgeStyle;rounded=0;orthogonalLoop=1;jettySize=auto;html=1;entryX=0;entryY=1;entryDx=0;entryDy=0;" edge="1" parent="1" source="tUc8w9MmdWVIXcs6jcP_-54" target="tUc8w9MmdWVIXcs6jcP_-28">
          <mxGeometry relative="1" as="geometry">
            <Array as="points">
              <mxPoint x="470" y="830" />
              <mxPoint x="470" y="788" />
            </Array>
          </mxGeometry>
        </mxCell>
        <mxCell id="tUc8w9MmdWVIXcs6jcP_-58" style="edgeStyle=orthogonalEdgeStyle;rounded=0;orthogonalLoop=1;jettySize=auto;html=1;entryX=0;entryY=0.5;entryDx=0;entryDy=0;" edge="1" parent="1" source="tUc8w9MmdWVIXcs6jcP_-54" target="tUc8w9MmdWVIXcs6jcP_-27">
          <mxGeometry relative="1" as="geometry">
            <Array as="points">
              <mxPoint x="470" y="830" />
              <mxPoint x="470" y="660" />
            </Array>
          </mxGeometry>
        </mxCell>
        <mxCell id="tUc8w9MmdWVIXcs6jcP_-54" value="justInvest Employee" style="rounded=1;whiteSpace=wrap;html=1;" vertex="1" parent="1">
          <mxGeometry x="240" y="800" width="120" height="60" as="geometry" />
        </mxCell>
        <mxCell id="tUc8w9MmdWVIXcs6jcP_-56" style="edgeStyle=orthogonalEdgeStyle;rounded=0;orthogonalLoop=1;jettySize=auto;html=1;" edge="1" parent="1" source="tUc8w9MmdWVIXcs6jcP_-55" target="tUc8w9MmdWVIXcs6jcP_-54">
          <mxGeometry relative="1" as="geometry">
            <Array as="points">
              <mxPoint x="220" y="1020" />
              <mxPoint x="220" y="830" />
            </Array>
          </mxGeometry>
        </mxCell>
        <mxCell id="tUc8w9MmdWVIXcs6jcP_-55" value="User6" style="shape=umlActor;verticalLabelPosition=bottom;verticalAlign=top;html=1;" vertex="1" parent="1">
          <mxGeometry x="80" y="990" width="30" height="60" as="geometry" />
        </mxCell>
      </root>
    </mxGraphModel>
  </diagram>
</mxfile>
